<?xml version="1.0" encoding="utf-8" ?>
<svg baseProfile="tiny" height="100%" version="1.2" width="100%" xmlns="http://www.w3.org/2000/svg" xmlns:ev="http://www.w3.org/2001/xml-events" xmlns:xlink="http://www.w3.org/1999/xlink"><defs /><polyline fill="none" points="1227,3.9216 1228,3.9216 1229,3.9216 1230,7.8431 1231,7.8431 1232,7.8431 1233,7.8431 1234,7.8431 1235,7.8431 1236,7.8431 1237,7.8431 1238,7.8431 1239,7.8431 1240,7.8431 1241,7.8431 1242,7.8431 1243,7.8431 1244,7.8431 1245,7.8431 1246,7.8431 1247,7.8431 1248,7.8431 1249,7.8431 1250,7.8431 1251,7.8431 1252,7.8431 1253,7.8431 1254,7.8431 1255,7.8431 1256,7.8431 1257,7.8431 1258,7.8431 1259,7.8431 1260,7.8431 1261,7.8431 1262,7.8431 1263,7.8431 1264,7.8431 1265,7.8431 1266,3.9216 1267,3.9216 1268,3.9216 1269,3.9216 1270,3.9216 1271,3.9216 1272,3.9216 1273,3.9216 1274,3.9216 1275,3.9216 1276,3.9216 1277,3.9216 1278,3.9216 1279,3.9216 1280,3.9216 1281,3.9216 1282,3.9216 1283,3.9216 1284,3.9216 1285,3.9216 1286,3.9216 1287,3.9216 1288,3.9216 1289,3.9216 1290,3.9216 1291,3.9216 1292,3.9216 1293,3.9216 1294,3.9216 1295,3.9216 1296,3.9216 1297,3.9216 1299,3.9216 1300,3.9216 1301,3.9216 1302,3.9216 1303,3.9216 1304,3.9216 1305,3.9216 1306,3.9216 1307,3.9216 1308,3.9216 1309,3.9216 1310,3.9216 1311,3.9216 1312,3.9216 1313,3.9216 1314,3.9216 1315,3.9216 1316,3.9216 1317,3.9216 1318,3.9216 1319,3.9216 1320,3.9216 1321,3.9216 1322,3.9216 1323,3.9216 1324,3.9216 1325,3.9216 1326,3.9216 1327,3.9216 1328,3.9216 1329,3.9216 1330,3.9216 1331,3.9216 1332,3.9216 1333,3.9216 1334,3.9216 1335,3.9216 1336,3.9216 1337,3.9216 1338,3.9216 1339,3.9216 1340,3.9216 1341,7.8431 1342,7.8431 1343,7.8431 1344,7.8431 1345,7.8431 1346,7.8431 1347,7.8431 1348,7.8431 1349,11.7647 1350,11.7647 1351,11.7647 1352,11.7647 1353,11.7647 1354,11.7647 1355,11.7647 1356,11.7647 1357,11.7647 1358,11.7647 1359,11.7647 1360,11.7647 1361,11.7647 1362,11.7647 1363,11.7647 1364,11.7647 1365,11.7647 1366,11.7647 1367,11.7647 1368,11.7647 1369,11.7647 1370,11.7647 1371,11.7647 1372,11.7647 1373,11.7647 1374,11.7647 1375,11.7647 1376,11.7647 1377,11.7647 1378,11.7647 1379,11.7647 1380,11.7647 1381,11.7647 1382,11.7647 1383,11.7647 1384,11.7647 1385,11.7647 1386,11.7647 1387,11.7647 1388,11.7647 1389,11.7647 1390,11.7647 1391,11.7647 1392,11.7647 1393,11.7647 1394,11.7647 1395,11.7647 1396,11.7647 1397,11.7647 1398,11.7647 1399,11.7647 1400,11.7647 1401,11.7647 1402,11.7647 1403,11.7647 1404,11.7647 1405,7.8431 1406,7.8431 1407,7.8431 1408,7.8431 1409,11.7647 1410,11.7647 1411,11.7647 1412,11.7647 1413,11.7647 1414,11.7647 1415,7.8431 1416,7.8431 1417,7.8431 1418,7.8431 1419,7.8431 1420,7.8431 1421,7.8431 1422,7.8431 1423,7.8431 1424,7.8431 1425,7.8431 1426,7.8431 1427,7.8431 1428,7.8431 1429,7.8431 1430,7.8431 1431,7.8431 1432,7.8431 1433,7.8431 1434,7.8431 1435,7.8431 1436,7.8431 1437,7.8431 1438,7.8431 1439,7.8431 1440,7.8431 1441,7.8431 1442,7.8431 1443,7.8431 1444,7.8431 1445,7.8431 1446,7.8431 1447,7.8431 1448,7.8431 1449,7.8431 1450,7.8431 1451,7.8431 1452,7.8431 1453,7.8431 1454,11.7647 1455,11.7647 1456,11.7647 1457,11.7647 1458,11.7647 1459,11.7647 1460,11.7647 1461,11.7647 1462,11.7647 1463,11.7647 1464,11.7647 1465,11.7647 1466,11.7647 1467,11.7647 1468,7.8431 1469,11.7647 1470,11.7647 1471,11.7647 1472,7.8431 1473,7.8431 1474,7.8431 1475,7.8431 1476,7.8431 1477,7.8431 1478,7.8431 1479,3.9216 1480,3.9216 1481,3.9216 1482,3.9216 1483,3.9216 1484,3.9216 1485,3.9216 1486,3.9216 1487,3.9216 1488,3.9216 1489,3.9216 1490,3.9216 1491,3.9216 1492,3.9216 1493,3.9216 1494,3.9216 1495,3.9216 1496,3.9216 1497,3.9216 1498,3.9216 1499,3.9216 1500,3.9216 1501,7.8431 1502,7.8431 1503,7.8431 1504,7.8431 1505,7.8431 1506,11.7647 1507,11.7647 1508,11.7647 1509,11.7647 1510,11.7647 1511,11.7647 1512,11.7647 1513,11.7647 1514,11.7647 1515,11.7647 1516,11.7647 1517,11.7647 1518,11.7647 1519,11.7647 1520,11.7647 1521,11.7647 1522,11.7647 1523,11.7647 1524,11.7647 1525,11.7647 1526,11.7647 1527,15.6863 1528,15.6863 1529,15.6863 1530,15.6863 1531,15.6863 1532,15.6863 1533,15.6863 1534,15.6863 1535,15.6863 1536,15.6863 1537,15.6863 1538,15.6863 1539,15.6863 1540,15.6863 1541,15.6863 1542,15.6863 1543,19.6078 1544,19.6078 1545,19.6078 1546,19.6078 1547,19.6078 1548,19.6078 1549,19.6078 1550,19.6078 1551,15.6863 1552,15.6863 1553,15.6863 1554,15.6863 1555,19.6078 1556,19.6078 1557,19.6078 1558,19.6078 1559,19.6078 1560,19.6078 1561,19.6078 1562,19.6078 1563,19.6078 1564,19.6078 1565,19.6078 1566,19.6078 1567,19.6078 1568,19.6078 1569,19.6078 1570,19.6078 1571,19.6078 1572,19.6078 1573,19.6078 1574,19.6078 1575,19.6078 1576,19.6078 1577,19.6078 1578,19.6078 1579,19.6078 1580,19.6078 1581,19.6078 1582,19.6078 1583,19.6078 1584,19.6078 1585,19.6078 1586,19.6078 1587,19.6078 1588,19.6078 1589,19.6078 1590,19.6078 1591,23.5294 1592,23.5294 1593,23.5294 1594,19.6078 1595,19.6078 1596,19.6078 1597,23.5294 1598,23.5294 1599,23.5294 1600,23.5294 1601,23.5294 1602,23.5294 1603,23.5294 1604,23.5294 1605,27.451 1606,27.451 1607,27.451 1608,27.451 1609,27.451 1610,27.451 1611,27.451 1612,27.451 1613,27.451 1614,27.451 1615,27.451 1616,27.451 1617,31.3725 1618,31.3725 1619,31.3725 1620,31.3725 1621,31.3725 1622,31.3725 1623,31.3725 1624,31.3725 1625,31.3725 1626,31.3725 1627,35.2941 1628,35.2941 1629,35.2941 1630,35.2941 1631,35.2941 1632,35.2941 1633,35.2941 1634,39.2157 1635,39.2157 1636,39.2157 1637,39.2157 1638,39.2157 1639,39.2157 1640,39.2157 1641,39.2157 1642,39.2157 1643,43.1373 1644,43.1373 1645,43.1373 1646,43.1373 1647,43.1373 1648,43.1373 1649,43.1373 1650,43.1373 1651,47.0588 1652,47.0588 1653,47.0588 1654,47.0588 1655,47.0588 1656,47.0588 1657,47.0588 1658,47.0588 1659,47.0588 1660,47.0588 1661,47.0588 1662,47.0588 1663,47.0588 1664,50.9804 1665,50.9804 1666,50.9804 1667,50.9804 1668,50.9804 1669,50.9804 1670,50.9804 1671,47.0588 1672,50.9804 1673,50.9804 1674,50.9804 1675,54.902 1676,54.902 1677,54.902 1678,54.902 1679,54.902 1680,54.902 1681,58.8235 1682,58.8235 1683,58.8235 1684,58.8235 1685,58.8235 1686,62.7451 1687,62.7451 1688,62.7451 1689,62.7451 1690,62.7451 1691,62.7451 1692,62.7451 1693,66.6667 1694,66.6667 1695,66.6667 1696,66.6667 1697,66.6667 1698,66.6667 1699,70.5882 1700,70.5882 1701,70.5882 1702,70.5882 1703,70.5882 1704,70.5882 1705,70.5882 1706,74.5098 1707,74.5098 1708,74.5098 1709,74.5098 1710,74.5098 1711,74.5098 1712,78.4314 1713,78.4314 1714,82.3529 1715,86.2745 1716,86.2745 1717,90.1961 1718,94.1176 1719,94.1176 1720,94.1176 1721,94.1176 1722,94.1176 1723,94.1176 1724,94.1176 1725,94.1176 1726,94.1176 1727,98.0392 1728,98.0392 1729,98.0392 1730,98.0392 1731,98.0392 1732,101.9608 1733,101.9608 1734,101.9608 1735,105.8824 1736,105.8824 1737,105.8824 1738,105.8824 1739,105.8824 1740,105.8824 1741,105.8824 1742,105.8824 1743,105.8824 1744,105.8824 1745,105.8824 1746,105.8824 1747,105.8824 1748,105.8824 1749,105.8824 1750,105.8824 1751,109.8039 1752,109.8039 1753,109.8039 1754,105.8824 1755,105.8824 1756,105.8824 1757,105.8824 1758,105.8824 1759,105.8824 1760,109.8039 1761,109.8039 1762,109.8039 1763,113.7255 1764,113.7255 1765,113.7255 1766,117.6471 1767,117.6471 1768,121.5686 1769,121.5686 1770,121.5686 1771,121.5686 1772,121.5686 1773,125.4902 1774,125.4902 1775,125.4902 1776,125.4902 1777,121.5686 1778,121.5686 1779,117.6471 1780,117.6471 1781,117.6471 1782,117.6471 1783,117.6471 1784,121.5686 1785,121.5686 1786,121.5686 1787,125.4902 1788,125.4902 1789,129.4118 1790,129.4118 1791,129.4118 1792,129.4118 1793,133.3333 1794,133.3333 1795,133.3333 1796,137.2549 1797,137.2549 1798,141.1765 1799,141.1765 1800,141.1765 1801,141.1765 1802,137.2549 1803,137.2549 1804,137.2549 1805,137.2549 1806,137.2549 1807,137.2549 1808,137.2549 1809,137.2549 1810,137.2549 1811,137.2549 1812,137.2549 1813,141.1765 1814,141.1765 1815,141.1765 1816,145.098 1817,149.0196 1818,152.9412 1819,152.9412 1820,156.8627 1821,156.8627 1822,156.8627 1823,152.9412 1824,152.9412 1825,149.0196 1826,149.0196 1827,145.098 1828,145.098 1829,145.098 1830,149.0196 1831,149.0196 1832,152.9412 1833,152.9412 1834,156.8627 1835,164.7059 1836,168.6275 1837,172.549 1838,172.549 1839,176.4706 1840,176.4706 1841,176.4706 1842,180.3922 1843,184.3137 1844,188.2353 1845,192.1569 1846,196.0784 1847,200.0 1848,203.9216 1849,207.8431 1850,211.7647 1851,207.8431 1852,207.8431 1853,200.0 1854,192.1569 1855,184.3137 1856,176.4706 1857,172.549 1858,168.6275 1859,168.6275 1860,168.6275 1861,172.549 1862,176.4706 1863,180.3922 1864,184.3137 1865,192.1569 1866,196.0784 1867,196.0784 1868,200.0 1869,196.0784 1870,196.0784 1871,192.1569 1872,184.3137 1873,176.4706 1874,172.549 1875,164.7059 1876,160.7843 1877,160.7843 1878,160.7843 1879,164.7059 1880,168.6275 1881,172.549 1882,172.549 1883,176.4706 1884,176.4706 1885,176.4706 1886,176.4706 1887,180.3922 1888,180.3922 1889,180.3922 1890,180.3922 1891,180.3922 1892,180.3922 1893,180.3922 1894,180.3922 1895,180.3922 1896,180.3922 1897,184.3137 1898,184.3137 1899,184.3137 1900,180.3922 1901,176.4706 1902,172.549 1903,172.549 1904,168.6275 1905,168.6275 1906,168.6275 1907,172.549 1908,172.549 1909,176.4706 1910,180.3922 1911,180.3922 1912,184.3137 1913,188.2353 1914,188.2353 1915,192.1569 1916,196.0784 1917,200.0 1918,203.9216 1919,207.8431" stroke="blue" stroke-width="2" /></svg>